<svg id="Layer_1" data-name="Layer 1" xmlns="http://www.w3.org/2000/svg" viewBox="0 0 323.90569 444.17496">
  <defs>
    <style>
      .cls-1 {
        fill: #4351ff;
      }

      .cls-2 {
        fill: #d8d8d8;
      }

      .cls-3 {
        fill: #afafaf;
      }

      .cls-4 {
        isolation: isolate;
        font-size: 213px;
        fill: #fff;
        font-family: SourceSansPro-Regular, Source Sans Pro;
      }
    </style>
  </defs>
  <g>
    <g>
      <polygon class="cls-1" points="298.903 405.275 233.903 252.075 142.203 290.975 207.203 444.175 233.603 378.875 298.903 405.275"/>
      <polygon class="cls-1" points="25.003 405.275 90.003 252.075 181.603 290.975 116.603 444.175 90.203 378.875 25.003 405.275"/>
    </g>
    <path class="cls-2" d="M413.35,126.475l-14.8,38.3a14.06313,14.06313,0,0,0,0,9.9l14.80005,38.3a13.76147,13.76147,0,0,1-5.4,16.5l-34.5,22.3a13.79125,13.79125,0,0,0-5.8,8l-10.5,39.6a13.7852,13.7852,0,0,1-14,10.2l-41-2.2a13.38352,13.38352,0,0,0-9.4,3.1l-31.8,25.9a13.70381,13.70381,0,0,1-17.3,0l-31.8-25.9a14.03783,14.03783,0,0,0-9.4-3.1l-41,2.2a13.6053,13.6053,0,0,1-14-10.2l-10.5-39.6a13.90917,13.90917,0,0,0-5.8-8l-34.5-22.3a13.76154,13.76154,0,0,1-5.4-16.5l14.8-38.3a14.06247,14.06247,0,0,0,0-9.9l-14.8-38.3a13.76154,13.76154,0,0,1,5.4-16.5l34.5-22.3a13.79087,13.79087,0,0,0,5.8-8l10.5-39.6a13.78542,13.78542,0,0,1,14-10.2l41,2.2a13.38333,13.38333,0,0,0,9.4-3.1l31.8-25.9a13.70381,13.70381,0,0,1,17.3,0l31.8,25.9a14.0371,14.0371,0,0,0,9.4,3.1l41-2.2a13.60528,13.60528,0,0,1,14,10.2l10.5,39.6a13.909,13.909,0,0,0,5.8,8l34.5,22.3A13.84263,13.84263,0,0,1,413.35,126.475Z" transform="translate(-90.34716)"/>
    <path class="cls-2" d="M413.35,127.475l-14.8,38.3a14.06313,14.06313,0,0,0,0,9.9l14.80005,38.3a13.76147,13.76147,0,0,1-5.4,16.5l-34.5,22.3a13.79125,13.79125,0,0,0-5.8,8l-10.5,39.6a13.7852,13.7852,0,0,1-14,10.2l-41-2.2a13.38352,13.38352,0,0,0-9.4,3.1l-31.8,25.9a13.70381,13.70381,0,0,1-17.3,0l-31.8-25.9a14.03783,14.03783,0,0,0-9.4-3.1l-41,2.2a13.6053,13.6053,0,0,1-14-10.2l-10.5-39.6a13.90917,13.90917,0,0,0-5.8-8l-34.5-22.3a13.76154,13.76154,0,0,1-5.4-16.5l14.8-38.3a14.06247,14.06247,0,0,0,0-9.9l-14.8-38.3a13.76154,13.76154,0,0,1,5.4-16.5l34.5-22.3a13.79087,13.79087,0,0,0,5.8-8l10.5-39.6a13.78542,13.78542,0,0,1,14-10.2l41,2.2a13.38333,13.38333,0,0,0,9.4-3.1l31.8-25.9a13.70381,13.70381,0,0,1,17.3,0l31.8,25.9a14.0371,14.0371,0,0,0,9.4,3.1l41-2.2a13.60528,13.60528,0,0,1,14,10.2l10.5,39.6a13.909,13.909,0,0,0,5.8,8l34.5,22.3A13.84263,13.84263,0,0,1,413.35,127.475Z" transform="translate(-90.34716)"/>
    <path class="cls-2" d="M413.35,126.475l-14.8,38.3a14.06313,14.06313,0,0,0,0,9.9l14.80005,38.3a13.76147,13.76147,0,0,1-5.4,16.5l-34.5,22.3a13.79125,13.79125,0,0,0-5.8,8l-10.5,39.6a13.7852,13.7852,0,0,1-14,10.2l-41-2.2a13.38352,13.38352,0,0,0-9.4,3.1l-31.8,25.9a13.70381,13.70381,0,0,1-17.3,0l-31.8-25.9a14.03783,14.03783,0,0,0-9.4-3.1l-41,2.2a13.6053,13.6053,0,0,1-14-10.2l-10.5-39.6a13.90917,13.90917,0,0,0-5.8-8l-34.5-22.3a13.76154,13.76154,0,0,1-5.4-16.5l14.8-38.3a14.06247,14.06247,0,0,0,0-9.9l-14.8-38.3a13.76154,13.76154,0,0,1,5.4-16.5l34.5-22.3a13.79087,13.79087,0,0,0,5.8-8l10.5-39.6a13.78542,13.78542,0,0,1,14-10.2l41,2.2a13.38333,13.38333,0,0,0,9.4-3.1l31.8-25.9a13.70381,13.70381,0,0,1,17.3,0l31.8,25.9a14.0371,14.0371,0,0,0,9.4,3.1l41-2.2a13.60528,13.60528,0,0,1,14,10.2l10.5,39.6a13.909,13.909,0,0,0,5.8,8l34.5,22.3A13.84263,13.84263,0,0,1,413.35,126.475Z" transform="translate(-90.34716)"/>
    <circle class="cls-3" cx="252.30002" cy="169.67494" r="116.69997" transform="translate(-136.42849 228.09969) rotate(-45)"/>
    <text class="cls-4" transform="translate(109.02304 244.71706)">2</text>
  </g>
</svg>
