<svg id="Layer_1" data-name="Layer 1" xmlns="http://www.w3.org/2000/svg" viewBox="0 0 323.90597 436.37499">
  <defs>
    <style>
      .cls-1 {
        fill: #ed684a;
      }

      .cls-2 {
        fill: #f49a45;
      }

      .cls-3 {
        fill: #c47532;
      }

      .cls-4 {
        isolation: isolate;
        font-size: 213px;
        fill: #fff;
        font-family: SourceSansPro-Regular, Source Sans Pro;
      }
    </style>
  </defs>
  <g>
    <polygon class="cls-1" points="95.603 436.375 95.603 214.675 228.303 214.675 228.303 436.375 161.903 370.075 95.603 436.375"/>
    <path class="cls-2" d="M413.35017,126.375l-14.8,38.3a14.063,14.063,0,0,0,0,9.9l14.80005,38.3a13.76145,13.76145,0,0,1-5.4,16.5l-34.5,22.3a13.791,13.791,0,0,0-5.8,8l-10.5,39.6a13.78537,13.78537,0,0,1-14,10.2l-41-2.2a13.383,13.383,0,0,0-9.4,3.1l-31.8,25.9a13.7038,13.7038,0,0,1-17.30005,0l-31.8-25.9a14.03735,14.03735,0,0,0-9.4-3.1l-41,2.2a13.60527,13.60527,0,0,1-14-10.2l-10.5-39.6a13.90891,13.90891,0,0,0-5.80005-8l-34.5-22.3a13.7616,13.7616,0,0,1-5.4-16.5l14.80005-38.3a14.063,14.063,0,0,0,0-9.9l-14.8-38.3a13.76145,13.76145,0,0,1,5.4-16.5l34.5-22.3a13.79107,13.79107,0,0,0,5.80005-8l10.5-39.6a13.78534,13.78534,0,0,1,14-10.2l41,2.2a13.38308,13.38308,0,0,0,9.4-3.1l31.80029-25.8a13.70383,13.70383,0,0,1,17.30005,0l31.80005,25.9a14.03738,14.03738,0,0,0,9.4,3.1l41-2.2a13.60528,13.60528,0,0,1,14,10.2l10.5,39.6a13.909,13.909,0,0,0,5.8,8l34.5,22.3A13.588,13.588,0,0,1,413.35017,126.375Z" transform="translate(-90.34702)"/>
    <circle class="cls-3" cx="161.90318" cy="169.575" r="116.69998"/>
    <text class="cls-4" transform="translate(108.99909 236.99432)">3</text>
  </g>
</svg>
